REM MD5 f2a1287e071f2905c76c70ef47971c3d
FILE "Akuji the Heartless (Europe) (En,Fr,De).bin" BINARY
  TRACK 01 MODE2/2352
    INDEX 01 00:00:00
  TRACK 02 AUDIO
    INDEX 00 54:10:19
    INDEX 01 54:12:19
  TRACK 03 AUDIO
    INDEX 00 56:26:04
    INDEX 01 56:28:04
REM LEADOUT 59:35:44
